<svg xmlns="http://www.w3.org/2000/svg" version="1.1" xmlns:xlink="http://www.w3.org/1999/xlink" xmlns:svgjs="http://svgjs.dev/svgjs" viewBox="0 0 15.283129627170963 3.4837900088228175"><g transform="matrix(1,0,0,1,2.828401806852181,0.6214128645857668)"><rect width="15.283129627170963" height="3.4837900088228175" x="-2.828401806852181" y="-0.6214128645857668" fill="#ffffff"></rect><g><path d=" M 0.3435 1.4280000000000004 Q 0.3405 1.4280000000000004 0.336 1.4280000000000004 Q 0.3315 1.4280000000000004 0.3285 1.4265000000000003 Q 0.294 1.4145000000000003 0.294 1.3365000000000002 Q 0.294 1.3110000000000004 0.2985 1.2795000000000003 Q 0.3045 1.1970000000000003 0.3375 1.1025000000000003 Q 0.369 1.0080000000000002 0.41625 0.9090000000000003 Q 0.4635 0.8100000000000003 0.519 0.7095000000000002 Q 0.546 0.6585000000000003 0.57375 0.6082500000000003 Q 0.6015 0.5580000000000003 0.63 0.5085000000000003 Q 0.6765 0.42600000000000027 0.72 0.34650000000000025 Q 0.7635000000000001 0.26700000000000024 0.7965 0.19350000000000023 Q 0.789 0.2070000000000003 0.7815 0.22050000000000025 Q 0.756 0.26700000000000024 0.729 0.3150000000000003 Q 0.7020000000000001 0.3630000000000003 0.681 0.39300000000000024 Q 0.5985 0.5205000000000003 0.513 0.6397500000000003 Q 0.4275 0.7590000000000003 0.312 0.8415000000000004 Q 0.2655 0.8715000000000003 0.201 0.8947500000000003 Q 0.1365 0.9180000000000003 0.0855 0.9180000000000003 Q 0.03 0.9180000000000003 -0.00075 0.8820000000000003 Q -0.0315 0.8460000000000003 -0.0315 0.7905000000000003 Q -0.0315 0.7410000000000003 -0.0075 0.6915000000000002 Q 0.0105 0.6525000000000003 0.054 0.6000000000000003 Q 0.0975 0.5475000000000003 0.159 0.49575000000000025 Q 0.2205 0.4440000000000003 0.28800000000000003 0.41100000000000025 Q 0.2925 0.40800000000000025 0.2985 0.40800000000000025 Q 0.303 0.40800000000000025 0.3045 0.4125000000000003 Q 0.306 0.41700000000000026 0.3015 0.4245000000000003 Q 0.294 0.43350000000000033 0.28500000000000003 0.4410000000000003 Q 0.123 0.5940000000000003 0.075 0.7425000000000003 Q 0.0555 0.7950000000000003 0.0555 0.8295000000000003 Q 0.0555 0.8730000000000002 0.0855 0.8730000000000002 Q 0.111 0.8730000000000002 0.1485 0.8550000000000003 Q 0.186 0.8370000000000003 0.22275 0.8137500000000003 Q 0.2595 0.7905000000000003 0.28200000000000003 0.7725000000000003 Q 0.3045 0.7530000000000003 0.32925 0.7297500000000003 Q 0.354 0.7065000000000003 0.3795 0.6780000000000003 Q 0.429 0.6240000000000003 0.47700000000000004 0.5640000000000003 Q 0.525 0.5040000000000003 0.5700000000000001 0.4410000000000003 L 0.654 0.3210000000000003 Q 0.6945 0.26400000000000023 0.7282500000000001 0.21750000000000025 Q 0.762 0.17100000000000026 0.786 0.14100000000000024 Q 0.798 0.12450000000000028 0.8145 0.10800000000000032 Q 0.8310000000000001 0.09150000000000036 0.858 0.09150000000000036 Q 0.8925000000000001 0.09150000000000036 0.90525 0.11025000000000018 Q 0.918 0.12900000000000023 0.918 0.1545000000000003 Q 0.918 0.18900000000000028 0.9015 0.21450000000000025 Q 0.8835000000000001 0.24900000000000022 0.8632500000000001 0.2872500000000002 Q 0.843 0.32550000000000023 0.8175 0.3690000000000003 Q 0.7695 0.4530000000000003 0.71625 0.5452500000000002 Q 0.663 0.6375000000000003 0.6105 0.7350000000000003 Q 0.5835 0.7830000000000004 0.55875 0.8310000000000003 Q 0.534 0.8790000000000002 0.51 0.9240000000000003 Q 0.4635 1.0170000000000003 0.4305 1.1025000000000003 Q 0.3975 1.1880000000000004 0.3825 1.2585000000000004 Q 0.3765 1.2855000000000003 0.37275 1.3080000000000003 Q 0.369 1.3305000000000002 0.3675 1.3500000000000003 L 0.366 1.3815000000000004 Q 0.3645 1.3815000000000004 0.37125 1.3725000000000003 Q 0.378 1.3635000000000004 0.381 1.3575000000000004 Q 0.40950000000000003 1.3035000000000003 0.4635 1.1760000000000004 L 0.5175 1.0470000000000004 Q 0.5475 0.9780000000000003 0.57675 0.9082500000000002 Q 0.606 0.8385000000000002 0.6345000000000001 0.7755000000000003 Q 0.6525 0.7350000000000003 0.6795 0.6795000000000002 Q 0.7065 0.6240000000000003 0.74025 0.5632500000000003 Q 0.774 0.5025000000000003 0.81 0.44550000000000023 Q 0.846 0.3885000000000003 0.879 0.3450000000000003 Q 0.978 0.2100000000000003 1.0695000000000001 0.13800000000000034 Q 1.161 0.06600000000000028 1.2735 0.05550000000000033 Q 1.281 0.05550000000000033 1.287 0.0547500000000003 Q 1.293 0.05400000000000027 1.299 0.05400000000000027 Q 1.3935 0.05400000000000027 1.45275 0.11550000000000038 Q 1.512 0.17700000000000027 1.512 0.2805000000000003 Q 1.512 0.35550000000000026 1.46925 0.43425000000000025 Q 1.4265 0.5130000000000002 1.35825 0.5850000000000003 Q 1.29 0.6570000000000003 1.212 0.7140000000000003 Q 1.1115 0.7830000000000004 1.0095 0.8242500000000004 Q 0.9075 0.8655000000000003 0.8160000000000001 0.8745000000000003 Q 0.8025 0.8760000000000003 0.79125 0.8767500000000004 Q 0.78 0.8775000000000003 0.768 0.8775000000000003 Q 0.7425 0.8775000000000003 0.7215 0.8730000000000002 Q 0.684 0.8640000000000003 0.672 0.8550000000000003 Q 0.6645 0.8505000000000003 0.66 0.8460000000000003 L 0.66 0.8460000000000003 L 0.6435 0.8940000000000003 L 0.5700000000000001 1.1055000000000004 Q 0.558 1.1400000000000003 0.5445 1.1730000000000003 Q 0.531 1.2060000000000004 0.5175 1.2375000000000003 Q 0.453 1.3815000000000004 0.4005 1.4115000000000002 Q 0.375 1.4280000000000004 0.3435 1.4280000000000004 Z M 0.6825 0.8295000000000003 Q 0.6975 0.8370000000000003 0.7275 0.8370000000000003 Q 0.7425 0.8370000000000003 0.7605000000000001 0.8347500000000003 Q 0.7785 0.8325000000000002 0.7995 0.8310000000000003 Q 0.858 0.8250000000000003 0.9225 0.7927500000000003 Q 0.987 0.7605000000000003 1.05 0.7155000000000002 Q 1.113 0.6705000000000003 1.1655 0.6255000000000003 Q 1.1835 0.6105000000000003 1.2135 0.5775000000000002 Q 1.2435 0.5445000000000003 1.2765 0.5010000000000003 Q 1.3095 0.45750000000000024 1.33875 0.4117500000000003 Q 1.368 0.3660000000000003 1.3875 0.32550000000000023 Q 1.4235 0.2535000000000003 1.4235 0.2040000000000003 Q 1.4235 0.10950000000000037 1.32 0.10950000000000037 Q 1.2825 0.10950000000000037 1.2345 0.12300000000000022 Q 1.1775 0.14100000000000024 1.1235 0.17700000000000027 Q 1.0695000000000001 0.2130000000000003 1.0275 0.26100000000000023 Q 0.921 0.3810000000000002 0.83925 0.5040000000000003 Q 0.7575000000000001 0.6270000000000003 0.6960000000000001 0.7545000000000003 Q 0.681 0.7830000000000004 0.666 0.8265000000000002 L 0.6675 0.8265000000000002 Q 0.6705 0.8265000000000002 0.67425 0.8272500000000003 Q 0.678 0.8280000000000003 0.6825 0.8295000000000003 Z M 1.3859348144531252 1.3680000000000003 Q 1.3229348144531252 1.3680000000000003 1.289184814453125 1.3177500000000002 Q 1.255434814453125 1.2675000000000003 1.255434814453125 1.1790000000000003 Q 1.255434814453125 1.1490000000000002 1.259934814453125 1.1160000000000003 Q 1.2704348144531252 1.0320000000000003 1.3109348144531252 0.9435000000000002 Q 1.3514348144531252 0.8550000000000003 1.4204348144531251 0.7665000000000003 Q 1.4699348144531252 0.7020000000000003 1.5314348144531251 0.6667500000000003 Q 1.592934814453125 0.6315000000000003 1.651434814453125 0.6315000000000003 Q 1.6934348144531253 0.6315000000000003 1.7249348144531251 0.6480000000000004 Q 1.763934814453125 0.6705000000000003 1.763934814453125 0.7245000000000004 Q 1.763934814453125 0.7635000000000003 1.7369348144531251 0.8107500000000003 Q 1.709934814453125 0.8580000000000003 1.6439348144531252 0.9015000000000003 Q 1.559934814453125 0.9540000000000003 1.5021848144531251 0.9727500000000002 Q 1.4444348144531252 0.9915000000000003 1.4099348144531252 0.9945000000000003 Q 1.3994348144531252 1.0110000000000003 1.388184814453125 1.0447500000000003 Q 1.376934814453125 1.0785000000000002 1.3686848144531252 1.1152500000000003 Q 1.360434814453125 1.1520000000000004 1.3574348144531252 1.1805000000000003 Q 1.3574348144531252 1.1865000000000003 1.3566848144531252 1.1932500000000004 Q 1.3559348144531251 1.2000000000000004 1.3559348144531251 1.2075000000000002 Q 1.3559348144531251 1.3095000000000003 1.4204348144531251 1.3095000000000003 Q 1.4549348144531251 1.3095000000000003 1.499184814453125 1.2840000000000003 Q 1.5434348144531251 1.2585000000000004 1.5861848144531252 1.2225000000000004 Q 1.628934814453125 1.1865000000000003 1.6626848144531252 1.1527500000000004 Q 1.6964348144531252 1.1190000000000002 1.709934814453125 1.1025000000000003 L 1.8209348144531252 0.9735000000000003 L 1.850934814453125 0.9390000000000003 Q 1.858434814453125 0.9300000000000003 1.8659348144531251 0.9210000000000003 Q 1.873434814453125 0.9120000000000003 1.8809348144531253 0.9045000000000003 Q 1.886934814453125 0.8970000000000002 1.8944348144531251 0.8970000000000002 Q 1.910934814453125 0.8970000000000002 1.910934814453125 0.9150000000000003 Q 1.910934814453125 0.9240000000000003 1.9019348144531252 0.9360000000000003 Q 1.886934814453125 0.9570000000000003 1.8681848144531252 0.9795000000000003 Q 1.8494348144531252 1.0020000000000002 1.8329348144531252 1.0215000000000003 L 1.781934814453125 1.0830000000000002 Q 1.7519348144531253 1.1190000000000002 1.717434814453125 1.1602500000000002 Q 1.682934814453125 1.2015000000000002 1.6499348144531252 1.2330000000000003 Q 1.5104348144531252 1.3680000000000003 1.3859348144531252 1.3680000000000003 Z M 1.4339348144531252 0.9525000000000003 Q 1.463934814453125 0.9450000000000003 1.5051848144531252 0.9210000000000003 Q 1.546434814453125 0.8970000000000002 1.5846848144531251 0.8700000000000003 Q 1.6229348144531253 0.8430000000000003 1.6439348144531252 0.8250000000000003 Q 1.675434814453125 0.7995000000000003 1.6919348144531252 0.7680000000000002 Q 1.7084348144531252 0.7365000000000003 1.7084348144531252 0.7140000000000003 Q 1.7084348144531252 0.6825000000000003 1.682934814453125 0.6825000000000003 Q 1.670934814453125 0.6825000000000003 1.6574348144531252 0.6885000000000003 Q 1.6214348144531252 0.7050000000000003 1.5794348144531252 0.7515000000000003 Q 1.5374348144531251 0.7980000000000003 1.499184814453125 0.8535000000000004 Q 1.4609348144531251 0.9090000000000003 1.4339348144531252 0.9525000000000003 Z M 1.8914201660156253 1.4160000000000004 Q 1.8539201660156253 1.4160000000000004 1.8336701660156252 1.3867500000000004 Q 1.8134201660156253 1.3575000000000004 1.8134201660156253 1.3065000000000002 Q 1.8134201660156253 1.2945000000000002 1.8149201660156253 1.2795000000000003 Q 1.8164201660156252 1.2645000000000004 1.8194201660156253 1.2495000000000003 Q 1.8209201660156253 1.2465000000000004 1.8216701660156251 1.2397500000000004 Q 1.8224201660156252 1.2330000000000003 1.8239201660156252 1.2270000000000003 Q 1.8284201660156252 1.2045000000000003 1.8359201660156252 1.1700000000000004 Q 1.8434201660156253 1.1355000000000004 1.8524201660156252 1.1025000000000003 Q 1.8659201660156253 1.0455000000000003 1.8906701660156253 0.9742500000000003 Q 1.9154201660156251 0.9030000000000002 1.9484201660156253 0.8235000000000003 Q 1.9739201660156254 0.7635000000000003 1.9994201660156252 0.7102500000000003 Q 2.024920166015625 0.6570000000000003 2.050420166015625 0.6075000000000003 L 1.8554201660156253 0.6075000000000003 Q 1.8314201660156253 0.6075000000000003 1.8314201660156253 0.5940000000000003 Q 1.8314201660156253 0.5685000000000002 1.8719201660156253 0.5685000000000002 L 2.071420166015625 0.5685000000000002 Q 2.108920166015625 0.5025000000000003 2.1494201660156254 0.4425000000000002 Q 2.189920166015625 0.3825000000000003 2.237920166015625 0.33150000000000024 Q 2.2649201660156253 0.30000000000000027 2.2881701660156253 0.2872500000000002 Q 2.3114201660156253 0.2745000000000003 2.3346701660156253 0.2692500000000003 Q 2.3579201660156253 0.26400000000000023 2.3864201660156255 0.25800000000000023 L 2.3939201660156253 0.27000000000000024 Q 2.329420166015625 0.34950000000000025 2.2784201660156254 0.4215000000000003 Q 2.227420166015625 0.49350000000000027 2.1839201660156253 0.5685000000000002 L 2.3924201660156252 0.5685000000000002 Q 2.4179201660156253 0.5685000000000002 2.4179201660156253 0.5835000000000002 Q 2.4179201660156253 0.5910000000000003 2.4066701660156253 0.5992500000000003 Q 2.3954201660156254 0.6075000000000003 2.377420166015625 0.6075000000000003 L 2.1614201660156254 0.6075000000000003 Q 2.1269201660156254 0.6690000000000003 2.093920166015625 0.7380000000000002 Q 2.060920166015625 0.8070000000000003 2.024920166015625 0.8880000000000003 Q 1.9934201660156252 0.9570000000000003 1.9679201660156251 1.0357500000000004 Q 1.9424201660156253 1.1145000000000003 1.9281701660156252 1.1790000000000003 Q 1.9139201660156253 1.2435000000000003 1.9139201660156253 1.2720000000000002 Q 1.9139201660156253 1.3335000000000004 1.9439201660156253 1.3335000000000004 Q 1.9589201660156252 1.3335000000000004 1.9844201660156253 1.3170000000000004 Q 2.0429201660156253 1.2810000000000004 2.0886701660156253 1.2427500000000002 Q 2.1344201660156252 1.2045000000000003 2.1764201660156255 1.1640000000000004 Q 2.2064201660156253 1.1355000000000004 2.2469201660156255 1.0912500000000003 Q 2.2874201660156253 1.0470000000000004 2.3219201660156252 1.0095000000000003 Q 2.329420166015625 1.0020000000000002 2.3354201660156253 0.9945000000000003 Q 2.341420166015625 0.9870000000000003 2.3474201660156253 0.9810000000000003 L 2.3729201660156254 0.9525000000000003 Q 2.378920166015625 0.9465000000000003 2.3864201660156255 0.9465000000000003 Q 2.4044201660156252 0.9465000000000003 2.4044201660156252 0.9645000000000004 Q 2.4044201660156252 0.9720000000000003 2.3954201660156254 0.9840000000000003 Q 2.3864201660156255 0.9975000000000003 2.377420166015625 1.0065000000000004 L 2.3594201660156253 1.0290000000000004 Q 2.294920166015625 1.1100000000000003 2.2169201660156252 1.1910000000000003 Q 2.1389201660156254 1.2720000000000002 2.0549201660156253 1.3395000000000004 Q 2.0204201660156254 1.3665000000000003 1.9821701660156252 1.3912500000000003 Q 1.9439201660156253 1.4160000000000004 1.8914201660156253 1.4160000000000004 Z M 2.738833740234375 1.4370000000000003 Q 2.7283337402343752 1.4370000000000003 2.7238337402343755 1.4355000000000002 Q 2.7043337402343752 1.4280000000000004 2.6968337402343754 1.3987500000000004 Q 2.6893337402343755 1.3695000000000004 2.6893337402343755 1.3275000000000003 Q 2.6893337402343755 1.2660000000000002 2.7013337402343756 1.1970000000000003 Q 2.7133337402343756 1.1280000000000003 2.725333740234375 1.0890000000000002 Q 2.702833740234375 1.0770000000000004 2.679583740234375 1.0515000000000003 Q 2.656333740234375 1.0260000000000002 2.6488337402343753 1.0050000000000003 Q 2.6473337402343753 1.0020000000000002 2.6473337402343753 0.9975000000000003 Q 2.6473337402343753 0.9930000000000003 2.6473337402343753 0.9900000000000003 Q 2.6473337402343753 0.9870000000000003 2.6465837402343753 0.9840000000000003 Q 2.6458337402343752 0.9810000000000003 2.6458337402343752 0.9795000000000003 Q 2.6458337402343752 0.9570000000000003 2.6608337402343754 0.9570000000000003 Q 2.6743337402343754 0.9570000000000003 2.6743337402343754 0.9690000000000003 Q 2.6758337402343755 0.9750000000000003 2.6818337402343753 0.9847500000000002 Q 2.6878337402343755 0.9945000000000003 2.6938337402343753 1.0005000000000002 Q 2.7058337402343753 1.0125000000000002 2.7193337402343754 1.0230000000000004 Q 2.7328337402343754 1.0335000000000003 2.7403337402343753 1.0395000000000003 Q 2.7523337402343753 1.0050000000000003 2.7808337402343755 0.9465000000000003 Q 2.8153337402343754 0.8760000000000003 2.8625837402343755 0.7852500000000002 Q 2.9098337402343755 0.6945000000000003 2.9638337402343753 0.5895000000000002 L 3.0703337402343753 0.38400000000000023 Q 3.1078337402343754 0.3120000000000003 3.1408337402343753 0.24675000000000025 Q 3.1738337402343753 0.18150000000000033 3.1978337402343753 0.12900000000000023 Q 3.1843337402343757 0.15000000000000024 3.1693337402343755 0.17400000000000027 Q 3.1543337402343754 0.1980000000000003 3.1408337402343753 0.22050000000000025 Q 3.1348337402343756 0.23100000000000032 3.1280837402343753 0.2422500000000003 Q 3.1213337402343755 0.2535000000000003 3.1138337402343756 0.26400000000000023 Q 3.0943337402343754 0.29700000000000026 3.0733337402343754 0.33150000000000024 Q 3.0523337402343755 0.3660000000000003 3.031333740234375 0.40200000000000025 Q 2.938333740234375 0.5625000000000003 2.8498337402343754 0.6690000000000003 Q 2.8258337402343754 0.6975000000000002 2.7995837402343753 0.7237500000000003 Q 2.773333740234375 0.7500000000000002 2.7448337402343754 0.7725000000000003 Q 2.6173337402343755 0.8685000000000003 2.4838337402343753 0.8640000000000003 Q 2.4328337402343756 0.8610000000000002 2.399083740234375 0.8160000000000003 Q 2.3653337402343753 0.7710000000000004 2.3653337402343753 0.7170000000000003 Q 2.3653337402343753 0.6885000000000003 2.375833740234375 0.6630000000000003 Q 2.3908337402343753 0.6285000000000003 2.4230837402343752 0.5895000000000002 Q 2.4553337402343756 0.5505000000000003 2.4943337402343753 0.5152500000000003 Q 2.5333337402343754 0.4800000000000003 2.5678337402343754 0.4620000000000003 Q 2.5708337402343755 0.46050000000000024 2.5753337402343752 0.46050000000000024 Q 2.585833740234375 0.46050000000000024 2.585833740234375 0.46950000000000025 Q 2.585833740234375 0.47550000000000026 2.5798337402343754 0.48450000000000026 Q 2.5603337402343755 0.5025000000000003 2.5363337402343755 0.5392500000000002 Q 2.5123337402343755 0.5760000000000003 2.491333740234375 0.6180000000000003 Q 2.4703337402343752 0.6600000000000004 2.4583337402343752 0.6975000000000002 Q 2.4478337402343753 0.7335000000000003 2.4478337402343753 0.7650000000000003 Q 2.4478337402343753 0.8250000000000003 2.491333740234375 0.8250000000000003 Q 2.5468337402343755 0.8250000000000003 2.6113337402343753 0.7815000000000003 Q 2.7358337402343755 0.6930000000000003 2.8768337402343755 0.5100000000000002 Q 2.9113337402343755 0.46650000000000025 2.9420837402343754 0.42300000000000026 Q 2.9728337402343756 0.3795000000000003 3.0013337402343754 0.33750000000000024 Q 3.0163337402343755 0.3165000000000002 3.031333740234375 0.2955000000000003 Q 3.0463337402343753 0.2745000000000003 3.0613337402343754 0.2505000000000003 Q 3.100333740234375 0.19650000000000023 3.1355837402343756 0.14400000000000035 Q 3.170833740234375 0.09150000000000036 3.1933337402343756 0.06300000000000017 Q 3.218833740234375 0.03300000000000036 3.2323337402343753 0.01650000000000018 Q 3.2458337402343753 2.220446049250313e-16 3.2728337402343755 2.220446049250313e-16 Q 3.3013337402343756 2.220446049250313e-16 3.312583740234375 0.018000000000000238 Q 3.3238337402343756 0.036000000000000254 3.3238337402343756 0.06150000000000033 Q 3.3238337402343756 0.08850000000000025 3.3155837402343753 0.11700000000000021 Q 3.3073337402343754 0.1455000000000003 3.2983337402343755 0.16650000000000031 Q 3.242833740234375 0.28200000000000025 3.1813337402343755 0.39600000000000024 Q 3.1198337402343754 0.5100000000000002 3.0583337402343753 0.6240000000000003 Q 2.9983337402343753 0.7365000000000003 2.9413337402343753 0.8505000000000003 Q 2.8843337402343754 0.9645000000000004 2.8408337402343755 1.0815000000000003 L 2.8978337402343755 1.0920000000000003 Q 2.9233337402343755 1.0215000000000003 2.9480837402343756 0.9577500000000003 Q 2.9728337402343756 0.8940000000000003 3.0028337402343754 0.8235000000000003 Q 3.0343337402343753 0.7500000000000002 3.076333740234375 0.6630000000000003 Q 3.1183337402343754 0.5760000000000003 3.1768337402343754 0.4590000000000003 Q 3.2008337402343754 0.4095000000000003 3.2330837402343753 0.3487500000000002 Q 3.265333740234375 0.28800000000000026 3.3050837402343753 0.23100000000000032 Q 3.3448337402343755 0.17400000000000027 3.3935837402343756 0.13725000000000032 Q 3.4423337402343757 0.10050000000000026 3.497833740234375 0.10050000000000026 Q 3.5548337402343755 0.10050000000000026 3.590833740234375 0.1365000000000003 Q 3.6268337402343755 0.17250000000000032 3.6268337402343755 0.2250000000000003 Q 3.6268337402343755 0.24150000000000027 3.6223337402343754 0.2625000000000003 Q 3.6058337402343756 0.3420000000000003 3.5375837402343757 0.42225000000000024 Q 3.4693337402343754 0.5025000000000003 3.3718337402343757 0.5565000000000003 Q 3.5098337402343756 0.5805000000000002 3.591583740234375 0.6442500000000003 Q 3.6733337402343755 0.7080000000000003 3.6733337402343755 0.7920000000000003 Q 3.6733337402343755 0.8595000000000003 3.640333740234375 0.9105000000000003 Q 3.5788337402343755 1.0125000000000002 3.428833740234375 1.0740000000000003 Q 3.3568337402343755 1.1025000000000003 3.2773337402343756 1.1190000000000002 Q 3.1618337402343752 1.1445000000000003 3.0478337402343754 1.1445000000000003 Q 3.0043337402343755 1.1445000000000003 2.960833740234375 1.1400000000000003 Q 2.9488337402343756 1.1835000000000002 2.9263337402343756 1.2390000000000003 Q 2.9038337402343752 1.2945000000000002 2.8715837402343753 1.3432500000000003 Q 2.8393337402343755 1.3920000000000003 2.797333740234375 1.4190000000000003 Q 2.7613337402343756 1.4370000000000003 2.738833740234375 1.4370000000000003 Z M 2.9728337402343756 1.0950000000000002 Q 2.9983337402343753 1.0965000000000003 3.0268337402343755 1.0957500000000002 Q 3.055333740234375 1.0950000000000002 3.0853337402343755 1.0920000000000003 Q 3.1513337402343753 1.0860000000000003 3.2150837402343755 1.0702500000000004 Q 3.2788337402343752 1.0545000000000002 3.334333740234375 1.0305000000000002 Q 3.3913337402343755 1.0050000000000003 3.4333337402343753 0.9720000000000003 Q 3.5263337402343753 0.8955000000000003 3.5263337402343753 0.7995000000000003 Q 3.5263337402343753 0.7200000000000003 3.4670837402343757 0.6652500000000003 Q 3.4078337402343752 0.6105000000000003 3.313333740234375 0.6000000000000003 L 3.2953337402343754 0.6255000000000003 Q 3.287833740234375 0.6345000000000003 3.2803337402343753 0.6442500000000003 Q 3.2728337402343755 0.6540000000000004 3.2698337402343753 0.6570000000000003 Q 3.2638337402343756 0.6675000000000002 3.2548337402343757 0.6675000000000002 Q 3.242833740234375 0.6675000000000002 3.2323337402343753 0.6487500000000003 Q 3.2218337402343753 0.6300000000000003 3.2218337402343753 0.6075000000000003 Q 3.2218337402343753 0.5805000000000002 3.2368337402343754 0.5640000000000003 Q 3.2443337402343753 0.5535000000000003 3.266083740234375 0.5497500000000003 Q 3.287833740234375 0.5460000000000003 3.311833740234375 0.5490000000000003 L 3.3538337402343754 0.4995000000000003 Q 3.3898337402343754 0.4560000000000003 3.427333740234375 0.40725000000000033 Q 3.4648337402343756 0.35850000000000026 3.4903337402343757 0.3045000000000003 Q 3.5158337402343753 0.2505000000000003 3.5158337402343753 0.19350000000000023 Q 3.5158337402343753 0.15000000000000024 3.4873337402343756 0.15000000000000024 Q 3.4588337402343754 0.15000000000000024 3.4243337402343754 0.17700000000000027 Q 3.3898337402343754 0.20550000000000024 3.3545837402343754 0.24975000000000025 Q 3.3193337402343754 0.29400000000000026 3.2848337402343755 0.3480000000000003 Q 3.2668337402343752 0.37500000000000033 3.2518337402343755 0.4005000000000003 Q 3.2368337402343754 0.42600000000000027 3.2218337402343753 0.45150000000000023 Q 3.1933337402343756 0.5025000000000003 3.1738337402343753 0.5445000000000003 Q 3.1543337402343754 0.5865000000000002 3.1453337402343755 0.6060000000000003 Q 3.0643337402343755 0.7920000000000003 3.0238337402343753 0.9255000000000003 L 2.9728337402343756 1.0950000000000002 Z M 2.7613337402343756 1.3890000000000002 Q 2.773333740234375 1.3890000000000002 2.7995837402343753 1.3357500000000002 Q 2.8258337402343754 1.2825000000000002 2.867833740234375 1.1715000000000002 Q 2.8738337402343754 1.1595000000000002 2.8775837402343756 1.1490000000000002 Q 2.8813337402343753 1.1385000000000003 2.8843337402343754 1.1310000000000002 Q 2.8483337402343754 1.1280000000000003 2.8228337402343753 1.1205000000000003 Q 2.8168337402343755 1.1325000000000003 2.8070837402343756 1.1580000000000004 Q 2.797333740234375 1.1835000000000002 2.7890837402343753 1.2105000000000004 Q 2.7808337402343755 1.2375000000000003 2.7778337402343753 1.2540000000000002 Q 2.7718337402343756 1.2810000000000004 2.7673337402343754 1.3125000000000002 Q 2.7628337402343752 1.3440000000000003 2.7613337402343756 1.3665000000000003 Q 2.7598337402343756 1.3890000000000002 2.7613337402343756 1.3890000000000002 Z M 3.7048190917968755 1.4160000000000004 Q 3.6673190917968754 1.4160000000000004 3.6470690917968756 1.3867500000000004 Q 3.6268190917968757 1.3575000000000004 3.6268190917968757 1.3065000000000002 Q 3.6268190917968757 1.2945000000000002 3.6283190917968753 1.2795000000000003 Q 3.6298190917968753 1.2645000000000004 3.6328190917968755 1.2495000000000003 Q 3.6583190917968755 1.1115000000000004 3.7100690917968757 0.9600000000000003 Q 3.7618190917968755 0.8085000000000002 3.8398190917968753 0.6585000000000003 Q 3.7978190917968755 0.6720000000000003 3.7625690917968755 0.6780000000000003 Q 3.7273190917968755 0.6840000000000003 3.6988190917968753 0.6840000000000003 Q 3.6658190917968754 0.6840000000000003 3.6508190917968757 0.6757500000000003 Q 3.6358190917968756 0.6675000000000002 3.6358190917968756 0.6600000000000004 Q 3.6358190917968756 0.6450000000000002 3.6658190917968754 0.6450000000000002 Q 3.6733190917968757 0.6450000000000002 3.6808190917968755 0.6457500000000003 Q 3.6883190917968753 0.6465000000000003 3.6943190917968756 0.6465000000000003 Q 3.7618190917968755 0.6465000000000003 3.8653190917968754 0.6060000000000003 Q 3.9523190917968756 0.44850000000000023 4.051319091796875 0.31725000000000025 Q 4.1503190917968755 0.18600000000000028 4.256819091796876 0.08850000000000025 Q 4.300319091796876 0.04950000000000032 4.341569091796876 0.030750000000000277 Q 4.3828190917968755 0.012000000000000233 4.415819091796876 0.012000000000000233 Q 4.4548190917968755 0.012000000000000233 4.481069091796876 0.03825000000000034 Q 4.507319091796876 0.06450000000000022 4.507319091796876 0.12000000000000033 Q 4.507319091796876 0.15000000000000024 4.493819091796875 0.18450000000000033 Q 4.4548190917968755 0.28200000000000025 4.340819091796876 0.3780000000000002 Q 4.3123190917968754 0.40200000000000025 4.282319091796875 0.4245000000000003 Q 4.252319091796876 0.4470000000000003 4.222319091796876 0.4680000000000003 Q 4.159319091796876 0.5100000000000002 4.091069091796875 0.5475000000000003 Q 4.022819091796875 0.5850000000000003 3.9568190917968753 0.6120000000000003 Q 3.8548190917968754 0.7890000000000004 3.7948190917968754 0.9570000000000003 Q 3.7303190917968756 1.1415000000000004 3.7273190917968755 1.2720000000000002 Q 3.7273190917968755 1.3320000000000003 3.7543190917968756 1.3320000000000003 Q 3.7633190917968755 1.3320000000000003 3.7738190917968755 1.3275000000000003 Q 3.7843190917968754 1.3230000000000004 3.7993190917968755 1.3170000000000004 Q 3.8443190917968755 1.2900000000000003 3.8773190917968754 1.2615000000000003 Q 3.9103190917968753 1.2330000000000003 3.9433190917968757 1.1955000000000002 Q 3.9553190917968757 1.1820000000000004 3.9740690917968755 1.1595000000000002 Q 3.9928190917968753 1.1370000000000002 4.015319091796876 1.1085000000000003 Q 4.042319091796876 1.0755000000000003 4.071569091796875 1.0395000000000003 Q 4.100819091796875 1.0035000000000003 4.1263190917968755 0.9735000000000003 Q 4.156319091796876 0.9375000000000002 4.186319091796875 0.9045000000000003 Q 4.192319091796875 0.8970000000000002 4.199819091796876 0.8970000000000002 Q 4.217819091796875 0.8970000000000002 4.217819091796875 0.9165000000000003 Q 4.217819091796875 0.9270000000000003 4.208819091796876 0.9360000000000003 Q 4.192319091796875 0.9570000000000003 4.1735690917968755 0.9795000000000003 Q 4.154819091796876 1.0020000000000002 4.138319091796875 1.0215000000000003 Q 4.129319091796876 1.0320000000000003 4.1030690917968755 1.0627500000000003 Q 4.076819091796875 1.0935000000000004 4.042319091796876 1.1355000000000004 Q 4.010819091796876 1.1730000000000003 3.9770690917968756 1.2142500000000003 Q 3.9433190917968757 1.2555000000000003 3.9148190917968755 1.2885000000000004 Q 3.8863190917968753 1.3215000000000003 3.8683190917968755 1.3395000000000004 Q 3.7873190917968755 1.4160000000000004 3.7048190917968755 1.4160000000000004 Z M 4.3828190917968755 0.08100000000000018 Q 4.2898190917968755 0.1545000000000003 4.188569091796875 0.27600000000000025 Q 4.087319091796876 0.3975000000000003 3.9958190917968754 0.5475000000000003 Q 4.066319091796876 0.5115000000000003 4.139069091796875 0.4627500000000003 Q 4.211819091796875 0.41400000000000026 4.276319091796876 0.35850000000000026 Q 4.340819091796876 0.30300000000000027 4.387319091796876 0.2452500000000003 Q 4.433819091796876 0.18750000000000022 4.451819091796875 0.13350000000000017 Q 4.457819091796876 0.11550000000000038 4.457819091796876 0.0990000000000002 Q 4.457819091796876 0.06150000000000033 4.427819091796875 0.06150000000000033 Q 4.4068190917968755 0.06150000000000033 4.3828190917968755 0.08100000000000018 Z M 4.307765625 1.1580000000000004 Q 4.252265625000001 1.1580000000000004 4.217015625 1.1115000000000004 Q 4.181765625000001 1.0650000000000004 4.181765625000001 0.9960000000000003 Q 4.181765625000001 0.9390000000000003 4.199765625 0.8880000000000003 Q 4.235765625 0.7890000000000004 4.3197656250000005 0.7005000000000003 Q 4.379765625 0.6405000000000003 4.445015625 0.6037500000000002 Q 4.510265625000001 0.5670000000000003 4.561265625 0.5670000000000003 Q 4.604765625000001 0.5670000000000003 4.631015625 0.5895000000000002 Q 4.657265625 0.6120000000000003 4.657265625 0.6435000000000003 Q 4.657265625 0.6570000000000003 4.649765625000001 0.6765000000000003 Q 4.666265625 0.6780000000000003 4.681265625 0.6787500000000003 Q 4.6962656250000006 0.6795000000000002 4.711265625 0.6795000000000002 Q 4.7412656250000005 0.6795000000000002 4.770515625 0.6765000000000003 Q 4.799765625 0.6735000000000002 4.826765625 0.6675000000000002 L 4.8342656250000005 0.6675000000000002 Q 4.853765625 0.6675000000000002 4.853765625 0.6810000000000003 Q 4.853765625 0.6915000000000002 4.8357656250000005 0.6990000000000003 Q 4.820765625 0.7050000000000003 4.787015625 0.7110000000000003 Q 4.753265625 0.7170000000000003 4.715015625 0.7207500000000002 Q 4.676765625 0.7245000000000004 4.6467656250000005 0.7245000000000004 Q 4.636265625 0.7245000000000004 4.628015625 0.7245000000000004 Q 4.619765625 0.7245000000000004 4.613765625 0.7230000000000003 L 4.607765625 0.7260000000000003 Q 4.622765625 0.7500000000000002 4.622765625 0.7935000000000003 Q 4.622765625 0.8535000000000004 4.593515625 0.9172500000000003 Q 4.564265625 0.9810000000000003 4.517015625 1.0357500000000004 Q 4.469765625 1.0905000000000002 4.4142656250000005 1.1242500000000002 Q 4.358765625 1.1580000000000004 4.307765625 1.1580000000000004 Z M 4.3212656250000006 1.1070000000000002 Q 4.360265625 1.1070000000000002 4.397765625 1.0785000000000002 Q 4.435265625 1.0500000000000003 4.466765625 1.0035000000000003 Q 4.498265625 0.9570000000000003 4.520015625 0.9030000000000002 Q 4.541765625 0.8490000000000003 4.547765625 0.7995000000000003 Q 4.549265625 0.7905000000000003 4.549265625 0.7822500000000003 Q 4.549265625 0.7740000000000002 4.549265625 0.7680000000000002 Q 4.549265625 0.7455000000000003 4.544765625 0.7320000000000002 L 4.541765625 0.7320000000000002 Q 4.522265625 0.7275000000000003 4.513265625 0.7222500000000003 Q 4.504265625 0.7170000000000003 4.495265625 0.7080000000000003 L 4.493765625 0.7065000000000003 Q 4.487765625 0.7005000000000003 4.487015625 0.6952500000000004 Q 4.486265625000001 0.6900000000000003 4.486265625000001 0.6840000000000003 Q 4.486265625000001 0.6705000000000003 4.496765625 0.6622500000000002 Q 4.5072656250000005 0.6540000000000004 4.522265625 0.6570000000000003 L 4.597265625 0.6705000000000003 Q 4.609265625 0.6465000000000003 4.609265625 0.6330000000000002 Q 4.609265625 0.6030000000000003 4.562765625 0.6030000000000003 Q 4.522265625 0.6030000000000003 4.475015625 0.6442500000000003 Q 4.427765625 0.6855000000000002 4.385015625 0.7462500000000003 Q 4.3422656250000005 0.8070000000000003 4.310765625 0.8670000000000002 Q 4.2957656250000005 0.8970000000000002 4.285265625 0.9397500000000003 Q 4.274765625000001 0.9825000000000003 4.274765625000001 1.0215000000000003 Q 4.274765625000001 1.0575000000000003 4.286015625 1.0822500000000004 Q 4.2972656250000005 1.1070000000000002 4.3212656250000006 1.1070000000000002 Z M 4.526685791015625 1.8585000000000003 Q 4.474185791015625 1.8585000000000003 4.438935791015625 1.8255000000000003 Q 4.403685791015625 1.7925000000000004 4.403685791015625 1.7325000000000004 Q 4.403685791015625 1.6575000000000002 4.453935791015625 1.5727500000000003 Q 4.504185791015625 1.4880000000000004 4.595685791015625 1.4010000000000002 Q 4.645185791015625 1.3530000000000002 4.713435791015625 1.3012500000000002 Q 4.781685791015625 1.2495000000000003 4.852935791015625 1.2022500000000003 Q 4.924185791015625 1.1550000000000002 4.9796857910156245 1.1235000000000004 Q 5.014185791015625 1.0500000000000003 5.045685791015625 0.9757500000000003 Q 5.077185791015625 0.9015000000000003 5.104185791015625 0.8310000000000003 Q 5.0741857910156245 0.8805000000000003 5.039685791015625 0.9352500000000004 Q 5.0051857910156246 0.9900000000000003 4.965435791015625 1.0365000000000002 Q 4.925685791015625 1.0830000000000002 4.882935791015625 1.1115000000000004 Q 4.8401857910156245 1.1400000000000003 4.795185791015625 1.1400000000000003 Q 4.735185791015625 1.1400000000000003 4.711185791015625 1.1032500000000003 Q 4.687185791015625 1.0665000000000002 4.687185791015625 1.0125000000000002 Q 4.687185791015625 0.9570000000000003 4.705185791015625 0.8947500000000003 Q 4.7231857910156245 0.8325000000000002 4.744185791015624 0.7860000000000003 Q 4.774185791015625 0.7230000000000003 4.8176857910156246 0.6607500000000003 Q 4.861185791015625 0.5985000000000003 4.913685791015625 0.5482500000000002 Q 4.966185791015625 0.49800000000000033 5.020185791015625 0.4672500000000003 Q 5.0741857910156245 0.43650000000000033 5.123685791015625 0.43650000000000033 Q 5.207685791015625 0.43650000000000033 5.254935791015625 0.49500000000000033 Q 5.302185791015625 0.5535000000000003 5.302185791015625 0.6570000000000003 Q 5.302185791015625 0.6855000000000002 5.293185791015625 0.7027500000000002 Q 5.284185791015625 0.7200000000000003 5.273685791015625 0.7200000000000003 Q 5.258685791015624 0.7200000000000003 5.258685791015624 0.6825000000000003 Q 5.2616857910156245 0.6450000000000002 5.250435791015625 0.6052500000000003 Q 5.2391857910156245 0.5655000000000003 5.2159357910156245 0.5377500000000003 Q 5.1926857910156246 0.5100000000000002 5.158185791015625 0.5085000000000003 Q 5.105685791015625 0.5055000000000003 5.045685791015625 0.5482500000000002 Q 4.985685791015625 0.5910000000000003 4.931685791015624 0.6705000000000003 Q 4.915185791015625 0.6945000000000003 4.900185791015625 0.7185000000000004 Q 4.8851857910156244 0.7425000000000003 4.871685791015625 0.7665000000000003 Q 4.8176857910156246 0.8670000000000002 4.798185791015625 0.9360000000000003 Q 4.789185791015625 0.9615000000000002 4.785435791015625 0.9840000000000003 Q 4.781685791015625 1.0065000000000004 4.781685791015625 1.0230000000000004 Q 4.781685791015625 1.0770000000000004 4.814685791015624 1.0770000000000004 Q 4.844685791015625 1.0770000000000004 4.889685791015625 1.0320000000000003 Q 4.916685791015625 1.0035000000000003 4.949685791015625 0.9645000000000004 Q 4.982685791015625 0.9255000000000003 5.014935791015625 0.8842500000000003 Q 5.047185791015625 0.8430000000000003 5.0734357910156245 0.8077500000000003 Q 5.099685791015625 0.7725000000000003 5.114685791015625 0.7530000000000003 Q 5.117685791015625 0.7485000000000003 5.1214357910156245 0.7425000000000003 Q 5.125185791015625 0.7365000000000003 5.131185791015625 0.7290000000000003 Q 5.141685791015625 0.7140000000000003 5.152185791015625 0.6810000000000003 Q 5.158185791015625 0.6615000000000003 5.1679357910156245 0.6525000000000003 Q 5.177685791015625 0.6435000000000003 5.186685791015625 0.6435000000000003 Q 5.209185791015625 0.6435000000000003 5.209185791015625 0.6795000000000002 Q 5.206185791015625 0.7110000000000003 5.187435791015625 0.7770000000000004 Q 5.1686857910156245 0.8430000000000003 5.1439357910156245 0.9202500000000002 Q 5.119185791015624 0.9975000000000003 5.095185791015625 1.0635000000000003 Q 5.104185791015625 1.0590000000000004 5.113185791015625 1.0545000000000002 Q 5.1221857910156245 1.0500000000000003 5.129685791015625 1.0470000000000004 L 5.1671857910156245 1.0320000000000003 Q 5.170185791015625 1.0305000000000002 5.176185791015625 1.0305000000000002 Q 5.188185791015625 1.0305000000000002 5.194185791015625 1.0372500000000002 Q 5.200185791015625 1.0440000000000003 5.200185791015625 1.0515000000000003 Q 5.200185791015625 1.0665000000000002 5.185185791015625 1.0710000000000004 Q 5.1671857910156245 1.0770000000000004 5.137935791015625 1.0897500000000002 Q 5.108685791015625 1.1025000000000003 5.0726857910156244 1.1220000000000003 Q 5.033685791015625 1.2315000000000003 4.986435791015625 1.3350000000000004 Q 4.939185791015625 1.4385000000000003 4.895685791015625 1.5135000000000003 Q 4.7471857910156245 1.7670000000000003 4.621185791015625 1.8330000000000002 Q 4.597185791015625 1.8465000000000003 4.572435791015625 1.8525000000000003 Q 4.547685791015625 1.8585000000000003 4.526685791015625 1.8585000000000003 Z M 4.517685791015625 1.8090000000000002 Q 4.546185791015625 1.8090000000000002 4.574685791015625 1.7895000000000003 Q 4.609185791015625 1.7655000000000003 4.648185791015625 1.7190000000000003 Q 4.687185791015625 1.6725000000000003 4.726185791015625 1.6140000000000003 Q 4.765185791015625 1.5555000000000003 4.799685791015625 1.4962500000000003 Q 4.834185791015625 1.4370000000000003 4.856685791015625 1.3875000000000002 L 4.945185791015625 1.1970000000000003 Q 4.897185791015625 1.2300000000000002 4.844685791015625 1.2667500000000003 Q 4.7921857910156245 1.3035000000000003 4.741185791015625 1.3440000000000003 Q 4.691685791015625 1.3860000000000003 4.640685791015625 1.4355000000000002 Q 4.589685791015625 1.4850000000000003 4.546935791015625 1.5375000000000003 Q 4.504185791015625 1.5900000000000003 4.477935791015625 1.6395000000000004 Q 4.451685791015625 1.6890000000000003 4.451685791015625 1.7310000000000003 Q 4.451685791015625 1.7685000000000004 4.470435791015625 1.7887500000000003 Q 4.4891857910156245 1.8090000000000002 4.517685791015625 1.8090000000000002 Z" fill="#1c3423" fill-rule="nonzero"></path></g><g><path d=" M 0.037500000000000006 1.9236403846153847 L 0.037500000000000006 1.9144096153846155 L 0.08365384615384616 1.8913326923076923 L 0.08365384615384616 1.5751788461538463 L 0.037500000000000006 1.552101923076923 L 0.037500000000000006 1.542871153846154 L 0.3138461538461539 1.542871153846154 L 0.3138461538461539 1.6421019230769232 L 0.3046153846153846 1.6421019230769232 L 0.26884615384615385 1.574601923076923 L 0.1355769230769231 1.574601923076923 L 0.1355769230769231 1.7113326923076924 L 0.2278846153846154 1.7113326923076924 L 0.25673076923076926 1.663448076923077 L 0.26596153846153847 1.663448076923077 L 0.26596153846153847 1.7897942307692307 L 0.25673076923076926 1.7897942307692307 L 0.2278846153846154 1.7430634615384615 L 0.1355769230769231 1.7430634615384615 L 0.1355769230769231 1.8913326923076923 L 0.18750000000000003 1.9144096153846155 L 0.18750000000000003 1.9236403846153847 L 0.037500000000000006 1.9236403846153847 Z M 0.4003572904146635 1.9236403846153847 L 0.4003572904146635 1.9144096153846155 L 0.44651113656850966 1.8913326923076923 L 0.44651113656850966 1.5751788461538463 L 0.4003572904146635 1.552101923076923 L 0.4003572904146635 1.542871153846154 L 0.5445880596454327 1.542871153846154 L 0.5445880596454327 1.552101923076923 L 0.49843421349158656 1.5751788461538463 L 0.49843421349158656 1.8913326923076923 L 0.5445880596454327 1.9144096153846155 L 0.5445880596454327 1.9236403846153847 L 0.4003572904146635 1.9236403846153847 Z M 0.6253305288461539 1.9236403846153847 L 0.6253305288461539 1.9144096153846155 L 0.6714843750000001 1.8913326923076923 L 0.6714843750000001 1.5763326923076924 L 0.6259074519230771 1.552101923076923 L 0.6259074519230771 1.542871153846154 L 0.7107151442307693 1.542871153846154 L 0.9310997596153847 1.8197942307692307 L 0.9310997596153847 1.574025 L 0.873407451923077 1.552101923076923 L 0.873407451923077 1.542871153846154 L 1.0170612980769231 1.542871153846154 L 1.0170612980769231 1.552101923076923 L 0.9714843750000002 1.574601923076923 L 0.9714843750000002 1.926525 L 0.9501382211538463 1.926525 L 0.7118689903846155 1.625948076923077 L 0.7118689903846155 1.8919096153846153 L 0.7695612980769232 1.9144096153846155 L 0.7695612980769232 1.9236403846153847 L 0.6253305288461539 1.9236403846153847 Z M 1.0891423152043271 1.9236403846153847 L 1.0891423152043271 1.9144096153846155 L 1.1352961613581731 1.8913326923076923 L 1.1352961613581731 1.5751788461538463 L 1.0891423152043271 1.552101923076923 L 1.0891423152043271 1.542871153846154 L 1.2581807767427886 1.542871153846154 Q 1.321642315204327 1.542871153846154 1.366642315204327 1.5653711538461539 Q 1.4116423152043271 1.5878711538461538 1.4350076998197117 1.627101923076923 Q 1.4583730844350964 1.6663326923076922 1.4583730844350964 1.715948076923077 Q 1.4583730844350964 1.760948076923077 1.4430846228966347 1.799025 Q 1.4277961613581733 1.8371019230769232 1.4001038536658656 1.864794230769231 Q 1.372411545973558 1.8924865384615386 1.3352000075120194 1.9080634615384615 Q 1.2979884690504808 1.9236403846153847 1.254142315204327 1.9236403846153847 L 1.0891423152043271 1.9236403846153847 Z M 1.2449115459735578 1.574601923076923 L 1.18721923828125 1.574601923076923 L 1.18721923828125 1.8919096153846153 L 1.253565392127404 1.8919096153846153 Q 1.2997192382812501 1.8919096153846153 1.33346923828125 1.8725826923076923 Q 1.3672192382812502 1.8532557692307692 1.385392315204327 1.8177750000000001 Q 1.403565392127404 1.7822942307692309 1.403565392127404 1.7338326923076923 Q 1.403565392127404 1.685948076923077 1.3851038536658655 1.6498903846153845 Q 1.366642315204327 1.6138326923076924 1.3311615459735577 1.5942173076923076 Q 1.2956807767427887 1.574601923076923 1.2449115459735578 1.574601923076923 Z M 1.6735090519831732 1.9236403846153847 L 1.6735090519831732 1.9144096153846155 L 1.71043212890625 1.895371153846154 L 1.8581244365985579 1.5399865384615385 L 1.8840859750600962 1.5399865384615385 L 2.0294705904447117 1.8936403846153846 L 2.068124436598558 1.9144096153846155 L 2.068124436598558 1.9236403846153847 L 1.9250475135216347 1.9236403846153847 L 1.9250475135216347 1.9144096153846155 L 1.9758167442908656 1.894794230769231 L 1.9325475135216348 1.7880634615384616 L 1.792355205829327 1.7880634615384616 L 1.7496628981370195 1.894794230769231 L 1.7981244365985578 1.9144096153846155 L 1.7981244365985578 1.9236403846153847 L 1.6735090519831732 1.9236403846153847 Z M 1.8056244365985579 1.7563326923076923 L 1.919855205829327 1.7563326923076923 L 1.8627398212139425 1.6144096153846155 L 1.8056244365985579 1.7563326923076923 Z M 2.280361703725962 1.9236403846153847 L 2.280361703725962 1.9144096153846155 L 2.326515549879808 1.8913326923076923 L 2.326515549879808 1.5751788461538463 L 2.280361703725962 1.552101923076923 L 2.280361703725962 1.542871153846154 L 2.430361703725962 1.542871153846154 Q 2.498438626802885 1.542871153846154 2.539688626802885 1.5676788461538462 Q 2.580938626802885 1.5924865384615385 2.580938626802885 1.6461403846153846 Q 2.580938626802885 1.677871153846154 2.55930401141827 1.7023903846153847 Q 2.537669396033654 1.7269096153846155 2.500457857572116 1.7413326923076924 Q 2.4632463191105773 1.7557557692307693 2.416515549879808 1.7557557692307693 L 2.378438626802885 1.7557557692307693 L 2.378438626802885 1.8913326923076923 L 2.430361703725962 1.9144096153846155 L 2.430361703725962 1.9236403846153847 L 2.280361703725962 1.9236403846153847 Z M 2.378438626802885 1.574601923076923 L 2.378438626802885 1.7240250000000001 L 2.4274770883413463 1.7240250000000001 Q 2.4730540114182697 1.7240250000000001 2.4990155498798083 1.7035442307692308 Q 2.5249770883413465 1.6830634615384616 2.5249770883413465 1.6507557692307693 Q 2.5249770883413465 1.6103711538461538 2.4987270883413464 1.5924865384615385 Q 2.4724770883413467 1.574601923076923 2.423438626802885 1.574601923076923 L 2.378438626802885 1.574601923076923 Z M 2.654172926682693 1.9236403846153847 L 2.654172926682693 1.9144096153846155 L 2.7003267728365388 1.8913326923076923 L 2.7003267728365388 1.5751788461538463 L 2.654172926682693 1.552101923076923 L 2.654172926682693 1.542871153846154 L 2.9362883112980773 1.542871153846154 L 2.9362883112980773 1.6421019230769232 L 2.927057542067308 1.6421019230769232 L 2.8912883112980774 1.574601923076923 L 2.752249849759616 1.574601923076923 L 2.752249849759616 1.7113326923076924 L 2.8503267728365387 1.7113326923076924 L 2.879172926682693 1.663448076923077 L 2.888403695913462 1.663448076923077 L 2.888403695913462 1.7897942307692307 L 2.879172926682693 1.7897942307692307 L 2.8503267728365387 1.7430634615384615 L 2.752249849759616 1.7430634615384615 L 2.752249849759616 1.8919096153846153 L 2.9074421574519236 1.8919096153846153 L 2.943211388221154 1.8186403846153847 L 2.9524421574519235 1.8186403846153847 L 2.9524421574519235 1.9236403846153847 L 2.654172926682693 1.9236403846153847 Z M 3.109352276141827 1.9236403846153847 L 3.109352276141827 1.9144096153846155 L 3.167044583834135 1.8913326923076923 L 3.167044583834135 1.574601923076923 L 3.0730061222956735 1.574601923076923 L 3.033775353064904 1.6594096153846154 L 3.024544583834135 1.6594096153846154 L 3.024544583834135 1.542871153846154 L 3.361467660757212 1.542871153846154 L 3.361467660757212 1.6594096153846154 L 3.3522368915264424 1.6594096153846154 L 3.3130061222956733 1.574601923076923 L 3.2189676607572117 1.574601923076923 L 3.2189676607572117 1.8913326923076923 L 3.2766599684495192 1.9144096153846155 L 3.2766599684495192 1.9236403846153847 L 3.109352276141827 1.9236403846153847 Z M 3.4306696965144234 1.9236403846153847 L 3.4306696965144234 1.9144096153846155 L 3.4768235426682694 1.8913326923076923 L 3.4768235426682694 1.5751788461538463 L 3.4306696965144234 1.552101923076923 L 3.4306696965144234 1.542871153846154 L 3.5795158503605773 1.542871153846154 Q 3.6400927734375004 1.542871153846154 3.6749966195913464 1.5679673076923077 Q 3.709900465745193 1.5930634615384616 3.709900465745193 1.6369096153846154 Q 3.709900465745193 1.6692173076923078 3.687977388822116 1.6948903846153847 Q 3.666054311899039 1.7205634615384615 3.629708158052885 1.7338326923076923 L 3.7393235426682696 1.8936403846153846 L 3.7774004657451927 1.9144096153846155 L 3.7774004657451927 1.9236403846153847 L 3.6943235426682697 1.9236403846153847 L 3.5824004657451924 1.7488326923076922 L 3.5287466195913466 1.7488326923076922 L 3.5287466195913466 1.8907557692307693 L 3.572015850360577 1.9144096153846155 L 3.572015850360577 1.9236403846153847 L 3.4306696965144234 1.9236403846153847 Z M 3.5662466195913463 1.574601923076923 L 3.5287466195913466 1.574601923076923 L 3.5287466195913466 1.717101923076923 L 3.569708158052885 1.717101923076923 Q 3.606054311899039 1.717101923076923 3.6299966195913465 1.696621153846154 Q 3.653938927283654 1.6761403846153846 3.653938927283654 1.6444096153846153 Q 3.653938927283654 1.6121019230769231 3.630285081129808 1.593351923076923 Q 3.606631234975962 1.574601923076923 3.5662466195913463 1.574601923076923 Z M 3.8206406813401443 1.9236403846153847 L 3.8206406813401443 1.9144096153846155 L 3.8667945274939908 1.8913326923076923 L 3.8667945274939908 1.5751788461538463 L 3.8206406813401443 1.552101923076923 L 3.8206406813401443 1.542871153846154 L 3.9648714505709135 1.542871153846154 L 3.9648714505709135 1.552101923076923 L 3.9187176044170675 1.5751788461538463 L 3.9187176044170675 1.8913326923076923 L 3.9648714505709135 1.9144096153846155 L 3.9648714505709135 1.9236403846153847 L 3.8206406813401443 1.9236403846153847 Z M 4.163306227463943 1.9294096153846154 Q 4.127536996694713 1.9294096153846154 4.10272930438702 1.9227750000000001 Q 4.077921612079328 1.9161403846153846 4.051383150540866 1.9028711538461538 L 4.045613919771635 1.8082557692307692 L 4.054844689002405 1.8082557692307692 L 4.083113919771636 1.8694096153846154 Q 4.103883150540866 1.8867173076923078 4.1234985351562505 1.8945057692307692 Q 4.143113919771635 1.9022942307692308 4.163306227463943 1.9022942307692308 Q 4.197344689002405 1.9022942307692308 4.2166716120793275 1.8844096153846155 Q 4.23599853515625 1.866525 4.23599853515625 1.835948076923077 Q 4.23599853515625 1.8105634615384616 4.224748535156251 1.7961403846153847 Q 4.21349853515625 1.7817173076923076 4.1924408428485584 1.7704673076923076 Q 4.1713831505408665 1.7592173076923077 4.142536996694712 1.7447942307692308 Q 4.115421612079327 1.730948076923077 4.096383150540866 1.7176788461538461 Q 4.0773446890024045 1.7044096153846153 4.067536996694712 1.6868134615384616 Q 4.05772930438702 1.6692173076923078 4.05772930438702 1.6426788461538462 Q 4.05772930438702 1.6230634615384616 4.067248535156251 1.6043134615384615 Q 4.0767677659254815 1.5855634615384615 4.093210073617789 1.570275 Q 4.109652381310097 1.5549865384615384 4.130133150540866 1.5460442307692308 Q 4.150613919771636 1.5371019230769232 4.172536996694713 1.5371019230769232 Q 4.199075458233174 1.5371019230769232 4.221575458233174 1.543448076923077 Q 4.244075458233174 1.5497942307692307 4.26772930438702 1.5613326923076922 L 4.273498535156251 1.6536403846153847 L 4.2642677659254815 1.6536403846153847 L 4.23772930438702 1.5930634615384616 Q 4.2175369966947125 1.5780634615384614 4.202536996694712 1.5714288461538461 Q 4.187536996694712 1.5647942307692309 4.167921612079327 1.5647942307692309 Q 4.142536996694712 1.5647942307692309 4.126094689002405 1.582101923076923 Q 4.109652381310097 1.5994096153846153 4.109652381310097 1.624794230769231 Q 4.109652381310097 1.6542173076923077 4.127536996694713 1.6706596153846154 Q 4.1454216120793275 1.687101923076923 4.183498535156251 1.7055634615384616 Q 4.2186908428485586 1.7228711538461539 4.2411908428485585 1.7375826923076922 Q 4.2636908428485585 1.7522942307692309 4.274652381310097 1.7713326923076924 Q 4.285613919771635 1.790371153846154 4.285613919771635 1.8197942307692307 Q 4.285613919771635 1.8469096153846154 4.274075458233174 1.8673903846153848 Q 4.262536996694712 1.887871153846154 4.244363919771636 1.9017173076923077 Q 4.226190842848559 1.9155634615384616 4.204556227463943 1.9224865384615386 Q 4.182921612079328 1.9294096153846154 4.163306227463943 1.9294096153846154 Z M 4.433851318359376 1.9236403846153847 L 4.433851318359376 1.9144096153846155 L 4.4915436260516834 1.8913326923076923 L 4.4915436260516834 1.574601923076923 L 4.397505164513222 1.574601923076923 L 4.358274395282453 1.6594096153846154 L 4.349043626051683 1.6594096153846154 L 4.349043626051683 1.542871153846154 L 4.685966702974761 1.542871153846154 L 4.685966702974761 1.6594096153846154 L 4.676735933743991 1.6594096153846154 L 4.637505164513223 1.574601923076923 L 4.543466702974761 1.574601923076923 L 4.543466702974761 1.8913326923076923 L 4.601159010667068 1.9144096153846155 L 4.601159010667068 1.9236403846153847 L 4.433851318359376 1.9236403846153847 Z M 4.758053354116588 1.9236403846153847 L 4.758053354116588 1.9144096153846155 L 4.804207200270434 1.8913326923076923 L 4.804207200270434 1.5751788461538463 L 4.758053354116588 1.552101923076923 L 4.758053354116588 1.542871153846154 L 4.902284123347357 1.542871153846154 L 4.902284123347357 1.552101923076923 L 4.856130277193511 1.5751788461538463 L 4.856130277193511 1.8913326923076923 L 4.902284123347357 1.9144096153846155 L 4.902284123347357 1.9236403846153847 L 4.758053354116588 1.9236403846153847 Z M 4.983026592548078 1.9236403846153847 L 4.983026592548078 1.9144096153846155 L 5.029180438701924 1.8913326923076923 L 5.029180438701924 1.5763326923076924 L 4.983603515625001 1.552101923076923 L 4.983603515625001 1.542871153846154 L 5.0684112079326935 1.542871153846154 L 5.288795823317309 1.8197942307692307 L 5.288795823317309 1.574025 L 5.231103515625001 1.552101923076923 L 5.231103515625001 1.542871153846154 L 5.3747573617788476 1.542871153846154 L 5.3747573617788476 1.552101923076923 L 5.329180438701925 1.574601923076923 L 5.329180438701925 1.926525 L 5.307834284855771 1.926525 L 5.06956505408654 1.625948076923077 L 5.06956505408654 1.8919096153846153 L 5.127257361778847 1.9144096153846155 L 5.127257361778847 1.9236403846153847 L 4.983026592548078 1.9236403846153847 Z M 5.647613243689905 1.9294096153846154 Q 5.59222862830529 1.9294096153846154 5.548670935997598 1.9051788461538461 Q 5.505113243689905 1.8809480769230769 5.480305551382213 1.8391211538461538 Q 5.455497859074521 1.7972942307692308 5.455497859074521 1.7436403846153847 Q 5.455497859074521 1.6992173076923076 5.471363243689906 1.6617173076923077 Q 5.4872286283052905 1.6242173076923077 5.515786320612983 1.5962365384615385 Q 5.544344012920675 1.5682557692307693 5.5812670898437515 1.552678846153846 Q 5.618190166766828 1.5371019230769232 5.660882474459136 1.5371019230769232 Q 5.690882474459136 1.5371019230769232 5.71222862830529 1.5405634615384616 Q 5.733574782151444 1.544025 5.750305551382213 1.5503711538461538 Q 5.767036320612982 1.5567173076923078 5.783767089843751 1.5647942307692309 L 5.786651705228367 1.6599865384615384 L 5.777420935997598 1.6599865384615384 L 5.739920935997597 1.595371153846154 Q 5.715690166766828 1.5786403846153847 5.6986709359975976 1.5722942307692307 Q 5.681651705228367 1.565948076923077 5.65972862830529 1.565948076923077 Q 5.615305551382213 1.565948076923077 5.5806901667668285 1.585275 Q 5.546074782151444 1.604601923076923 5.526459397536059 1.638351923076923 Q 5.506844012920674 1.6721019230769232 5.506844012920674 1.7147942307692308 Q 5.506844012920674 1.7724865384615385 5.527901705228367 1.812871153846154 Q 5.548959397536059 1.8532557692307692 5.58472862830529 1.874601923076923 Q 5.620497859074521 1.895948076923077 5.664344012920675 1.895948076923077 Q 5.683382474459136 1.895948076923077 5.70097862830529 1.8936403846153846 Q 5.718574782151444 1.8913326923076923 5.737613243689905 1.8838326923076925 L 5.737613243689905 1.7886403846153847 L 5.686267089843752 1.7655634615384617 L 5.686267089843752 1.7563326923076923 L 5.829344012920675 1.7563326923076923 L 5.829344012920675 1.7655634615384617 L 5.789536320612982 1.790371153846154 L 5.789536320612982 1.8809480769230769 Q 5.762997859074521 1.9028711538461538 5.724055551382214 1.9161403846153846 Q 5.685113243689905 1.9294096153846154 5.647613243689905 1.9294096153846154 Z M 6.124661301832934 1.9236403846153847 L 6.124661301832934 1.9144096153846155 L 6.182353609525242 1.8913326923076923 L 6.182353609525242 1.574601923076923 L 6.088315147986781 1.574601923076923 L 6.049084378756011 1.6594096153846154 L 6.039853609525242 1.6594096153846154 L 6.039853609525242 1.542871153846154 L 6.376776686448319 1.542871153846154 L 6.376776686448319 1.6594096153846154 L 6.36754591721755 1.6594096153846154 L 6.328315147986781 1.574601923076923 L 6.234276686448319 1.574601923076923 L 6.234276686448319 1.8913326923076923 L 6.2919689941406265 1.9144096153846155 L 6.2919689941406265 1.9236403846153847 L 6.124661301832934 1.9236403846153847 Z M 6.44597872220553 1.9236403846153847 L 6.44597872220553 1.9144096153846155 L 6.492132568359377 1.8913326923076923 L 6.492132568359377 1.5751788461538463 L 6.44597872220553 1.552101923076923 L 6.44597872220553 1.542871153846154 L 6.590209491436299 1.542871153846154 L 6.590209491436299 1.552101923076923 L 6.544055645282453 1.5751788461538463 L 6.544055645282453 1.7113326923076924 L 6.7402094914363 1.7113326923076924 L 6.7402094914363 1.5751788461538463 L 6.694055645282454 1.552101923076923 L 6.694055645282454 1.542871153846154 L 6.838286414513223 1.542871153846154 L 6.838286414513223 1.552101923076923 L 6.792132568359377 1.5751788461538463 L 6.792132568359377 1.8913326923076923 L 6.838286414513223 1.9144096153846155 L 6.838286414513223 1.9236403846153847 L 6.694055645282454 1.9236403846153847 L 6.694055645282454 1.9144096153846155 L 6.7402094914363 1.8913326923076923 L 6.7402094914363 1.7430634615384615 L 6.544055645282453 1.7430634615384615 L 6.544055645282453 1.8913326923076923 L 6.590209491436299 1.9144096153846155 L 6.590209491436299 1.9236403846153847 L 6.44597872220553 1.9236403846153847 Z M 6.921938852163463 1.9236403846153847 L 6.921938852163463 1.9144096153846155 L 6.968092698317309 1.8913326923076923 L 6.968092698317309 1.5751788461538463 L 6.921938852163463 1.552101923076923 L 6.921938852163463 1.542871153846154 L 7.066169621394232 1.542871153846154 L 7.066169621394232 1.552101923076923 L 7.0200157752403864 1.5751788461538463 L 7.0200157752403864 1.8913326923076923 L 7.066169621394232 1.9144096153846155 L 7.066169621394232 1.9236403846153847 L 6.921938852163463 1.9236403846153847 Z M 7.146912090594953 1.9236403846153847 L 7.146912090594953 1.9144096153846155 L 7.193065936748799 1.8913326923076923 L 7.193065936748799 1.5763326923076924 L 7.147489013671876 1.552101923076923 L 7.147489013671876 1.542871153846154 L 7.232296705979569 1.542871153846154 L 7.452681321364184 1.8197942307692307 L 7.452681321364184 1.574025 L 7.394989013671877 1.552101923076923 L 7.394989013671877 1.542871153846154 L 7.538642859825723 1.542871153846154 L 7.538642859825723 1.552101923076923 L 7.4930659367488 1.574601923076923 L 7.4930659367488 1.926525 L 7.471719782902646 1.926525 L 7.233450552133415 1.625948076923077 L 7.233450552133415 1.8919096153846153 L 7.291142859825722 1.9144096153846155 L 7.291142859825722 1.9236403846153847 L 7.146912090594953 1.9236403846153847 Z M 7.811498741736781 1.9294096153846154 Q 7.756114126352165 1.9294096153846154 7.712556434044473 1.9051788461538461 Q 7.668998741736781 1.8809480769230769 7.644191049429089 1.8391211538461538 Q 7.6193833571213965 1.7972942307692308 7.6193833571213965 1.7436403846153847 Q 7.6193833571213965 1.6992173076923076 7.635248741736781 1.6617173076923077 Q 7.651114126352166 1.6242173076923077 7.679671818659858 1.5962365384615385 Q 7.70822951096755 1.5682557692307693 7.745152587890627 1.552678846153846 Q 7.7820756648137035 1.5371019230769232 7.824767972506011 1.5371019230769232 Q 7.8547679725060116 1.5371019230769232 7.8761141263521655 1.5405634615384616 Q 7.897460280198319 1.544025 7.914191049429088 1.5503711538461538 Q 7.930921818659858 1.5567173076923078 7.947652587890627 1.5647942307692309 L 7.950537203275243 1.6599865384615384 L 7.941306434044473 1.6599865384615384 L 7.903806434044473 1.595371153846154 Q 7.879575664813704 1.5786403846153847 7.862556434044473 1.5722942307692307 Q 7.845537203275242 1.565948076923077 7.823614126352165 1.565948076923077 Q 7.779191049429088 1.565948076923077 7.744575664813704 1.585275 Q 7.709960280198319 1.604601923076923 7.6903448955829345 1.638351923076923 Q 7.67072951096755 1.6721019230769232 7.67072951096755 1.7147942307692308 Q 7.67072951096755 1.7724865384615385 7.691787203275243 1.812871153846154 Q 7.7128448955829345 1.8532557692307692 7.748614126352165 1.874601923076923 Q 7.7843833571213965 1.895948076923077 7.82822951096755 1.895948076923077 Q 7.847267972506011 1.895948076923077 7.864864126352165 1.8936403846153846 Q 7.88246028019832 1.8913326923076923 7.901498741736781 1.8838326923076925 L 7.901498741736781 1.7886403846153847 L 7.850152587890627 1.7655634615384617 L 7.850152587890627 1.7563326923076923 L 7.99322951096755 1.7563326923076923 L 7.99322951096755 1.7655634615384617 L 7.953421818659858 1.790371153846154 L 7.953421818659858 1.8809480769230769 Q 7.926883357121397 1.9028711538461538 7.887941049429089 1.9161403846153846 Q 7.84899874173678 1.9294096153846154 7.811498741736781 1.9294096153846154 Z M 8.215277569110578 1.9236403846153847 L 8.215277569110578 1.9144096153846155 L 8.261431415264424 1.8913326923076923 L 8.261431415264424 1.5751788461538463 L 8.215277569110578 1.552101923076923 L 8.215277569110578 1.542871153846154 L 8.364123722956732 1.542871153846154 Q 8.424700646033655 1.542871153846154 8.459604492187502 1.5679673076923077 Q 8.494508338341348 1.5930634615384616 8.494508338341348 1.6369096153846154 Q 8.494508338341348 1.6692173076923078 8.47258526141827 1.6948903846153847 Q 8.450662184495194 1.7205634615384615 8.41431603064904 1.7338326923076923 L 8.523931415264425 1.8936403846153846 L 8.562008338341347 1.9144096153846155 L 8.562008338341347 1.9236403846153847 L 8.478931415264425 1.9236403846153847 L 8.367008338341348 1.7488326923076922 L 8.313354492187502 1.7488326923076922 L 8.313354492187502 1.8907557692307693 L 8.356623722956732 1.9144096153846155 L 8.356623722956732 1.9236403846153847 L 8.215277569110578 1.9236403846153847 Z M 8.350854492187501 1.574601923076923 L 8.313354492187502 1.574601923076923 L 8.313354492187502 1.717101923076923 L 8.35431603064904 1.717101923076923 Q 8.390662184495193 1.717101923076923 8.4146044921875 1.696621153846154 Q 8.43854679987981 1.6761403846153846 8.43854679987981 1.6444096153846153 Q 8.43854679987981 1.6121019230769231 8.414892953725962 1.593351923076923 Q 8.391239107572117 1.574601923076923 8.350854492187501 1.574601923076923 Z M 8.605248553936299 1.9236403846153847 L 8.605248553936299 1.9144096153846155 L 8.651402400090145 1.8913326923076923 L 8.651402400090145 1.5751788461538463 L 8.605248553936299 1.552101923076923 L 8.605248553936299 1.542871153846154 L 8.749479323167067 1.542871153846154 L 8.749479323167067 1.552101923076923 L 8.703325477013221 1.5751788461538463 L 8.703325477013221 1.8913326923076923 L 8.749479323167067 1.9144096153846155 L 8.749479323167067 1.9236403846153847 L 8.605248553936299 1.9236403846153847 Z M 9.028106407752405 1.9294096153846154 Q 8.97272179236779 1.9294096153846154 8.929164100060097 1.9051788461538461 Q 8.885606407752405 1.8809480769230769 8.860798715444712 1.8391211538461538 Q 8.835991023137021 1.7972942307692308 8.835991023137021 1.7436403846153847 Q 8.835991023137021 1.6992173076923076 8.851856407752406 1.6617173076923077 Q 8.86772179236779 1.6242173076923077 8.896279484675482 1.5962365384615385 Q 8.924837176983175 1.5682557692307693 8.961760253906252 1.552678846153846 Q 8.998683330829328 1.5371019230769232 9.041375638521636 1.5371019230769232 Q 9.071375638521637 1.5371019230769232 9.09272179236779 1.5405634615384616 Q 9.114067946213943 1.544025 9.130798715444714 1.5503711538461538 Q 9.147529484675482 1.5567173076923078 9.164260253906251 1.5647942307692309 L 9.167144869290867 1.6599865384615384 L 9.157914100060097 1.6599865384615384 L 9.120414100060097 1.595371153846154 Q 9.096183330829328 1.5786403846153847 9.079164100060098 1.5722942307692307 Q 9.062144869290867 1.565948076923077 9.04022179236779 1.565948076923077 Q 8.995798715444714 1.565948076923077 8.961183330829328 1.585275 Q 8.926567946213943 1.604601923076923 8.90695256159856 1.638351923076923 Q 8.887337176983175 1.6721019230769232 8.887337176983175 1.7147942307692308 Q 8.887337176983175 1.7724865384615385 8.908394869290866 1.812871153846154 Q 8.92945256159856 1.8532557692307692 8.96522179236779 1.874601923076923 Q 9.00099102313702 1.895948076923077 9.044837176983174 1.895948076923077 Q 9.063875638521637 1.895948076923077 9.08147179236779 1.8936403846153846 Q 9.099067946213944 1.8913326923076923 9.118106407752405 1.8838326923076925 L 9.118106407752405 1.7886403846153847 L 9.066760253906251 1.7655634615384617 L 9.066760253906251 1.7563326923076923 L 9.209837176983175 1.7563326923076923 L 9.209837176983175 1.7655634615384617 L 9.170029484675482 1.790371153846154 L 9.170029484675482 1.8809480769230769 Q 9.14349102313702 1.9028711538461538 9.104548715444713 1.9161403846153846 Q 9.065606407752405 1.9294096153846154 9.028106407752405 1.9294096153846154 Z M 9.281920447716347 1.9236403846153847 L 9.281920447716347 1.9144096153846155 L 9.328074293870193 1.8913326923076923 L 9.328074293870193 1.5751788461538463 L 9.281920447716347 1.552101923076923 L 9.281920447716347 1.542871153846154 L 9.426151216947117 1.542871153846154 L 9.426151216947117 1.552101923076923 L 9.379997370793271 1.5751788461538463 L 9.379997370793271 1.7113326923076924 L 9.576151216947117 1.7113326923076924 L 9.576151216947117 1.5751788461538463 L 9.52999737079327 1.552101923076923 L 9.52999737079327 1.542871153846154 L 9.67422814002404 1.542871153846154 L 9.67422814002404 1.552101923076923 L 9.628074293870194 1.5751788461538463 L 9.628074293870194 1.8913326923076923 L 9.67422814002404 1.9144096153846155 L 9.67422814002404 1.9236403846153847 L 9.52999737079327 1.9236403846153847 L 9.52999737079327 1.9144096153846155 L 9.576151216947117 1.8913326923076923 L 9.576151216947117 1.7430634615384615 L 9.379997370793271 1.7430634615384615 L 9.379997370793271 1.8913326923076923 L 9.426151216947117 1.9144096153846155 L 9.426151216947117 1.9236403846153847 L 9.281920447716347 1.9236403846153847 Z M 9.828265193058895 1.9236403846153847 L 9.828265193058895 1.9144096153846155 L 9.885957500751203 1.8913326923076923 L 9.885957500751203 1.574601923076923 L 9.791919039212742 1.574601923076923 L 9.752688269981972 1.6594096153846154 L 9.743457500751203 1.6594096153846154 L 9.743457500751203 1.542871153846154 L 10.08038057767428 1.542871153846154 L 10.08038057767428 1.6594096153846154 L 10.071149808443511 1.6594096153846154 L 10.031919039212742 1.574601923076923 L 9.93788057767428 1.574601923076923 L 9.93788057767428 1.8913326923076923 L 9.995572885366588 1.9144096153846155 L 9.995572885366588 1.9236403846153847 L 9.828265193058895 1.9236403846153847 Z M 10.299547400841346 1.9236403846153847 L 10.299547400841346 1.9144096153846155 L 10.345701246995192 1.8913326923076923 L 10.345701246995192 1.5751788461538463 L 10.299547400841346 1.552101923076923 L 10.299547400841346 1.542871153846154 L 10.443778170072116 1.542871153846154 L 10.443778170072116 1.552101923076923 L 10.39762432391827 1.5751788461538463 L 10.39762432391827 1.7113326923076924 L 10.593778170072117 1.7113326923076924 L 10.593778170072117 1.5751788461538463 L 10.547624323918269 1.552101923076923 L 10.547624323918269 1.542871153846154 L 10.691855093149039 1.542871153846154 L 10.691855093149039 1.552101923076923 L 10.645701246995193 1.5751788461538463 L 10.645701246995193 1.8913326923076923 L 10.691855093149039 1.9144096153846155 L 10.691855093149039 1.9236403846153847 L 10.547624323918269 1.9236403846153847 L 10.547624323918269 1.9144096153846155 L 10.593778170072117 1.8913326923076923 L 10.593778170072117 1.7430634615384615 L 10.39762432391827 1.7430634615384615 L 10.39762432391827 1.8913326923076923 L 10.443778170072116 1.9144096153846155 L 10.443778170072116 1.9236403846153847 L 10.299547400841346 1.9236403846153847 Z M 10.772622915414663 1.9236403846153847 L 10.772622915414663 1.9144096153846155 L 10.81877676156851 1.8913326923076923 L 10.81877676156851 1.5751788461538463 L 10.772622915414663 1.552101923076923 L 10.772622915414663 1.542871153846154 L 11.05473830003005 1.542871153846154 L 11.05473830003005 1.6421019230769232 L 11.045507530799279 1.6421019230769232 L 11.009738300030047 1.574601923076923 L 10.870699838491587 1.574601923076923 L 10.870699838491587 1.7113326923076924 L 10.96877676156851 1.7113326923076924 L 10.997622915414663 1.663448076923077 L 11.006853684645433 1.663448076923077 L 11.006853684645433 1.7897942307692307 L 10.997622915414663 1.7897942307692307 L 10.96877676156851 1.7430634615384615 L 10.870699838491587 1.7430634615384615 L 10.870699838491587 1.8919096153846153 L 11.025892146183894 1.8919096153846153 L 11.061661376953126 1.8186403846153847 L 11.070892146183894 1.8186403846153847 L 11.070892146183894 1.9236403846153847 L 10.772622915414663 1.9236403846153847 Z M 11.154533034104567 1.9236403846153847 L 11.154533034104567 1.9144096153846155 L 11.200686880258413 1.8913326923076923 L 11.200686880258413 1.5751788461538463 L 11.154533034104567 1.552101923076923 L 11.154533034104567 1.542871153846154 L 11.303379187950721 1.542871153846154 Q 11.363956111027644 1.542871153846154 11.398859957181491 1.5679673076923077 Q 11.433763803335337 1.5930634615384616 11.433763803335337 1.6369096153846154 Q 11.433763803335337 1.6692173076923078 11.41184072641226 1.6948903846153847 Q 11.389917649489183 1.7205634615384615 11.35357149564303 1.7338326923076923 L 11.463186880258414 1.8936403846153846 L 11.501263803335336 1.9144096153846155 L 11.501263803335336 1.9236403846153847 L 11.418186880258414 1.9236403846153847 L 11.306263803335337 1.7488326923076922 L 11.252609957181491 1.7488326923076922 L 11.252609957181491 1.8907557692307693 L 11.295879187950721 1.9144096153846155 L 11.295879187950721 1.9236403846153847 L 11.154533034104567 1.9236403846153847 Z M 11.29010995718149 1.574601923076923 L 11.252609957181491 1.574601923076923 L 11.252609957181491 1.717101923076923 L 11.293571495643029 1.717101923076923 Q 11.329917649489182 1.717101923076923 11.353859957181491 1.696621153846154 Q 11.377802264873798 1.6761403846153846 11.377802264873798 1.6444096153846153 Q 11.377802264873798 1.6121019230769231 11.354148418719952 1.593351923076923 Q 11.330494572566106 1.574601923076923 11.29010995718149 1.574601923076923 Z M 11.541619403545672 1.9236403846153847 L 11.541619403545672 1.9144096153846155 L 11.587773249699518 1.8913326923076923 L 11.587773249699518 1.5751788461538463 L 11.541619403545672 1.552101923076923 L 11.541619403545672 1.542871153846154 L 11.823734788161058 1.542871153846154 L 11.823734788161058 1.6421019230769232 L 11.814504018930288 1.6421019230769232 L 11.778734788161056 1.574601923076923 L 11.639696326622596 1.574601923076923 L 11.639696326622596 1.7113326923076924 L 11.737773249699519 1.7113326923076924 L 11.766619403545672 1.663448076923077 L 11.775850172776442 1.663448076923077 L 11.775850172776442 1.7897942307692307 L 11.766619403545672 1.7897942307692307 L 11.737773249699519 1.7430634615384615 L 11.639696326622596 1.7430634615384615 L 11.639696326622596 1.8919096153846153 L 11.794888634314903 1.8919096153846153 L 11.830657865084135 1.8186403846153847 L 11.839888634314903 1.8186403846153847 L 11.839888634314903 1.9236403846153847 L 11.541619403545672 1.9236403846153847 Z" fill="#67a97b" fill-rule="nonzero"></path></g><g clip-path="url(&quot;#SvgjsClipPath1019&quot;)"><g clip-path="url(&quot;#SvgjsClipPath1008&quot;)"><path d=" M -1.746671503634827 1.0439081061982811 C -1.6076081470048822 1.0021250989794217 -1.5187544945274318 0.9072371391136899 -1.3654587058251253 0.9957250759918501 C -1.2121629171228185 1.0842130128700105 -1.2499230527494902 1.208632507378394 -1.2165667424642663 1.3499663483539304 C -1.1888790239680342 1.4671477216263695 -1.022097472541916 1.6793999125641856 -1.2077438536313996 1.8362157139096567 C -1.3801025679466858 1.9818162368769074 -1.4818934097490142 1.8269661568776188 -1.7544886745696466 1.6695713058332722 C -2.027083939390279 1.5121764547889256 -2.2121055563309757 1.5014640353597286 -2.1721968415584763 1.27939847584097 C -2.1291947823419854 1.040205235755472 -1.8619785844609065 1.078529182931049 -1.746671503634827 1.0439081061982811 Z" fill="#96cccc" transform="matrix(1,0,0,1,0,0)" fill-rule="nonzero"></path></g><g clip-path="url(&quot;#SvgjsClipPath1008&quot;)"><path d=" M -1.3419614785707554 1.9705857203487163 C -1.437123725135954 1.9705857203487163 -1.51945544942607 1.9146312336573772 -1.6236539189237216 1.8437738362949792 C -1.672568380328731 1.8105241930595484 -1.7280047699210774 1.7728554863326993 -1.7925840494956673 1.735582971505081 C -1.8571633290702574 1.6983104566774623 -1.9175368792530139 1.6691446376341008 -1.9707637370996502 1.6434074023340814 C -2.1407300618695833 1.5612890121435514 -2.2875191605345253 1.4903401858813308 -2.2471837775628547 1.2659431894170994 C -2.2041055275965116 1.0262928048324889 -1.9854990281210343 1.0003574735828542 -1.854862368424725 0.9848755132129197 C -1.8258029384945271 0.9823415639069288 -1.7969669922468574 0.9776917548422661 -1.7685839632922713 0.9709630822899358 C -1.73712120662672 0.9607982595083864 -1.7063212915849437 0.9486859333683622 -1.6763626796713629 0.9346962853603658 C -1.6190062831827468 0.9093095275096654 -1.5596536890480075 0.8830541951106515 -1.4887048627857864 0.8830541951106515 C -1.4317065118705579 0.883868838127347 -1.3759775893255335 0.9000064350788997 -1.3273633308991046 0.9297743629199238 C -1.1807570900338067 1.0144222860055412 -1.1682008544581903 1.131329372578513 -1.1571074812797322 1.2345373623280878 C -1.1542528005557686 1.2674824279384616 -1.1493416200980606 1.3002168452482794 -1.1424026665582878 1.3325491429377507 C -1.134053995337233 1.3604960093047698 -1.12365887054728 1.387790214963448 -1.1113016024686866 1.4142103886291713 C -1.0594918925692975 1.535079394194449 -0.9726344377379705 1.7373810732015889 -1.158539867376952 1.894501637546468 C -1.2192181805591178 1.945671345147099 -1.2792412532925552 1.9705857203487163 -1.3419614785707554 1.9705857203487163 Z M -1.4887048627857864 1.0354052185147935 C -1.527455478160534 1.0354052185147935 -1.5679432426319082 1.0532948065800527 -1.614724363041061 1.0740186905398077 C -1.6504525333828686 1.0906186627983796 -1.6871997730089916 1.1049307456001323 -1.724743805827409 1.1168683682565959 C -1.7615389938172037 1.1263935299170849 -1.7990628107216984 1.1328411838676666 -1.8369270659095531 1.1361446279691616 C -1.9801656756313917 1.1531656414861078 -2.075693637795881 1.173249523147106 -2.0972099055540987 1.2928690004148105 C -2.1156023525683816 1.3952541300659833 -2.084943194827919 1.4189646914199388 -1.904462546578405 1.5062031000005256 C -1.8488585373363853 1.533052720248385 -1.785833549058776 1.5635137820392309 -1.7163932996436273 1.6036053546113749 C -1.646953050228477 1.6436969271835191 -1.5890633184908962 1.6830570685570831 -1.5379850397900863 1.7177695741896735 C -1.455439981400386 1.773891680530687 -1.3901749850771268 1.8182194587946043 -1.3419614785707554 1.8182194587946043 C -1.325869992202005 1.8182194587946043 -1.299553707203109 1.814059443852683 -1.2569021254359372 1.7780212191726674 C -1.1640560776662392 1.6995904612749761 -1.1944257105572627 1.6068206042551312 -1.2513402006967376 1.47426393766255 C -1.2673932426236205 1.43982190111228 -1.2805634682673168 1.404108367410505 -1.2907155802202723 1.3674902208199002 C -1.299160801908157 1.3289917510312512 -1.3051462642625045 1.2899946315082815 -1.3086356445854728 1.2507355157466324 C -1.3185404420662377 1.1584837558257801 -1.3239804616056738 1.1076645256744686 -1.403554080751146 1.0617824561135694 C -1.4290484476843774 1.045491056985622 -1.4584654005496456 1.0363785399115748 -1.4887048627857864 1.035405218514793 Z" fill="#99515c" transform="matrix(1,0,0,1,0,0)" fill-rule="nonzero"></path></g><g clip-path="url(&quot;#SvgjsClipPath1008&quot;)"><path d=" M -1.985224741421569 0.455090753191737 C -2.051571646392725 0.6373695031377601 -2.008584825326204 0.8153206184921873 -1.8950606080466637 0.8566464812119347 C -1.7815363907671218 0.8979723439316821 -1.6717607583803007 0.7717242714268495 -1.6054138534091447 0.5894607596307968 C -1.539066948437987 0.4071972478347447 -1.543562202679257 0.24404237610158336 -1.6570559436588579 0.20274698968177712 C -1.7705496846384585 0.1614516032619702 -1.9188930746003814 0.27282724139568426 -1.985224741421569 0.455090753191737 Z" fill="#96cccc" transform="matrix(1,0,0,1,0,0)" fill-rule="nonzero"></path></g><g clip-path="url(&quot;#SvgjsClipPath1008&quot;)"><path d=" M -1.8514490228313543 0.9406848782987357 L -1.8514490228313543 0.9406848782987357 C -1.875211285731938 0.9406399405594559 -1.8987813954092176 0.936426203227653 -1.921087368196119 0.928235309772912 C -2.000325748042242 0.8994047300288996 -2.058885958378521 0.8256063697222125 -2.0818346122339553 0.7257964874160389 C -2.101805828735707 0.6265020067658006 -2.093117145626375 0.5235749364773298 -2.0567830936826046 0.4290335167423385 C -1.9901466638620091 0.24587095409803206 -1.8461613847916214 0.11796192324642499 -1.7066561218125353 0.11796192324642499 C -1.6808489485918037 0.1178971396772108 -1.6552307858134352 0.12236368466735895 -1.6309682309095175 0.13115816112079912 C -1.5491698418683666 0.16091826801300604 -1.498396326166966 0.2334975763220607 -1.487958193437236 0.3355017522239732 C -1.479927688402832 0.4142525112710426 -1.4957753643720557 0.5110909543329869 -1.533794548548224 0.6155332342301653 C -1.6090405331021007 0.822177785978871 -1.7248047584272914 0.9406848782987357 -1.8514490228313543 0.9406848782987357 Z M -1.7066865981124753 0.2703434229505074 C -1.7706868279881904 0.2703434229505074 -1.8656052641538627 0.34920084904737025 -1.9136359128605895 0.4811479896411348 C -1.9396679308080698 0.5481128084494148 -1.9464967504367197 0.6210133604974563 -1.9333540789222976 0.6916477933323538 C -1.9221997531439583 0.7401813009881041 -1.8987482403395008 0.7742080898720258 -1.8690033715972645 0.7850271763510158 C -1.863398503350679 0.7871541158529369 -1.8574589949914238 0.7882635809243874 -1.8514642609813243 0.7883033785946539 C -1.8068774341679104 0.7883033785946536 -1.733261931660868 0.7179336020313085 -1.6770026819701198 0.563403523181399 C -1.6472425750779136 0.48163561044018854 -1.6339549083037166 0.4061915299366968 -1.6395930237927687 0.3509837125939085 C -1.6460387612302507 0.28783681911653647 -1.6729798103779323 0.27803868868556425 -1.6831131801082542 0.27435105639272506 C -1.6906756271793353 0.2716448656838066 -1.6986547214440206 0.27028836808095447 -1.7066865981124766 0.27034342295050806 Z" fill="#99515c" transform="matrix(1,0,0,1,0,0)" fill-rule="nonzero"></path></g><g clip-path="url(&quot;#SvgjsClipPath1008&quot;)"><path d=" M -0.58736829203614 1.2621641282244382 C -0.7120468350940197 1.4107208522859478 -0.8876512753530048 1.462530562185336 -0.9801773219733234 1.3848159973362542 C -1.0727033685936422 1.3071014324871721 -1.0182726968993443 1.148944673944305 -0.8936246301414044 1.0003879498827954 C -0.768976563383466 0.8518312258212856 -0.6254331906622208 0.7740861846722626 -0.5328919058919321 0.8517397969214633 C -0.44035062112164214 0.9293934091706635 -0.46267451082828903 1.1135769278629875 -0.58736829203614 1.2621641282244382 Z" fill="#96cccc" transform="matrix(1,0,0,1,0,0)" fill-rule="nonzero"></path></g><g clip-path="url(&quot;#SvgjsClipPath1008&quot;)"><path d=" M -0.8733121762308507 1.4969078285185768 C -0.9300133540650839 1.4980984392977432 -0.9852860633909342 1.4790619823328977 -1.0292289267280663 1.443208588022858 C -1.0959872617484252 1.3871779105816673 -1.1183416277550147 1.300823314699364 -1.092177724255822 1.200068667095025 C -1.072063366294884 1.1226893415452917 -1.0236060493889856 1.0367004612622783 -0.9519867445280665 0.9514277740278738 C -0.8403215815449157 0.8183225340363577 -0.7215249643756134 0.7449965563787536 -0.6175245908275764 0.7449965563787536 C -0.5686465309348601 0.7447086109499392 -0.5212717100248256 0.7618817808885827 -0.4839317300370076 0.793423396984711 C -0.4193067360125067 0.8476254964294527 -0.3898513921197069 0.937545819404832 -0.4031695351938438 1.04012904500562 C -0.41882414891981457 1.1405048542327418 -0.4624588993394714 1.234434173551745 -0.5290671302493577 1.3111395422293302 C -0.6266217663599114 1.4274828172533967 -0.7553079428600087 1.4969078285185768 -0.8733121762308507 1.4969078285185768 Z M -0.6175855434274589 0.8973780560828359 C -0.6611971286427667 0.8973780560828359 -0.7413040830372037 0.9373020090053054 -0.835323468354622 1.0493786020376579 C -0.8916131943453098 1.116426461907454 -0.9304400004699098 1.1835809888270428 -0.9446876706922418 1.2383316616707198 C -0.9610686819104302 1.3014176025482096 -0.9385924107040786 1.320236717761664 -0.9312628605683126 1.3264386447996201 C -0.9147238819582486 1.3391530353024128 -0.8941917346590988 1.3455504201450954 -0.8733578906807618 1.344480614364583 C -0.8021195395691028 1.3444806143645838 -0.7127935044425702 1.2929299530146925 -0.6458370734725956 1.2131429997696352 C -0.5981852557222784 1.158609009694188 -0.5665427590916663 1.09195936429124 -0.5544081736501463 1.0205632604436154 C -0.5479471980626942 0.9705211759407957 -0.5580196151931325 0.9302619837189771 -0.5820501776964673 0.9101019113081267 C -0.5918637810514715 0.9015668913485366 -0.6045234545612634 0.8970261579375929 -0.6175245908275804 0.8973780560828359 Z" fill="#99515c" transform="matrix(1,0,0,1,0,0)" fill-rule="nonzero"></path></g><g clip-path="url(&quot;#SvgjsClipPath1008&quot;)"><path d=" M -1.436758009536664 0.2676919848556566 C -1.541078384234079 0.44840120535472805 -1.54296791483041 0.6345199690932939 -1.4377789655846824 0.695259234875341 C -1.332590016338954 0.755998500657388 -1.1723608694001113 0.6612781604413307 -1.0680404947026965 0.4805841780922302 C -0.9637201200052814 0.2998901957431293 -0.9583258149157576 0.10767617201639973 -1.063469049711574 0.04695214438432356 C -1.1686122845073903 -0.013771883247753282 -1.3324223966892792 0.08699800250655576 -1.436758009536664 0.2676919848556566 Z" fill="#96cccc" transform="matrix(1,0,0,1,0,0)" fill-rule="nonzero"></path></g><g clip-path="url(&quot;#SvgjsClipPath1008&quot;)"><path d=" M -1.3672110930717216 0.7897967172917539 L -1.3672110930717216 0.7897967172917539 C -1.4053261577629659 0.7901027367966384 -1.4428342266815686 0.7802457572491049 -1.475874340510702 0.761240424247209 C -1.620941528228989 0.6774305994099635 -1.6322482355070314 0.4539021774940454 -1.5027391989085312 0.22959660992963588 C -1.4057483743468837 0.06161124465585609 -1.2601935658295442 -0.04694533573333204 -1.1319188193786482 -0.04694533573333204 C -1.0945684916405556 -0.04727337668996857 -1.0578060988483953 -0.037636990426520855 -1.0254193892354657 -0.019029044987544357 C -0.882668400312681 0.06337887005242304 -0.8726416976321525 0.294541605103516 -1.0020440671808593 0.5186795530182503 C -1.0985929853933656 0.6858877726435397 -1.2385249165716243 0.7897967172917539 -1.3672110930717216 0.7897967172917539 Z M -1.1319188193786496 0.1054361639707497 C -1.1931457059597488 0.1054361639707497 -1.2948298807122833 0.1742516492371135 -1.370776820164798 0.30578735978167737 C -1.457634274996125 0.45614218553969477 -1.4556837917999128 0.5969426912662673 -1.3997293051085729 0.6292780455034731 C -1.389832912518271 0.6348589090757514 -1.3786154953984036 0.6376698432578299 -1.367256807521634 0.6374152175876712 C -1.3091537416844674 0.6374152175876712 -1.2113857714743281 0.5764626177060383 -1.1341131129743884 0.44248880316620876 C -1.0478042315419962 0.29298731380653403 -1.0457318431460194 0.14519249724354458 -1.1016863298373596 0.11293333375619016 C -1.110911448135271 0.10777413175639178 -1.121352026678587 0.10518503667407753 -1.1319188193786482 0.1054361639707497 Z" fill="#99515c" transform="matrix(1,0,0,1,0,0)" fill-rule="nonzero"></path></g><g clip-path="url(&quot;#SvgjsClipPath1008&quot;)"><path d=" M -0.6992925035687889 0.6934763713288035 C -0.8036281164161736 0.8741703536779043 -0.9638877396549574 0.9688602175940209 -1.0690614507507148 0.908136189961944 C -1.1742351618464737 0.8474121623298668 -1.1723608694001126 0.6612781604413307 -1.0680404947026976 0.4805841780922302 C -0.9637201200052827 0.2998901957431293 -0.7999557222733051 0.19912030998881963 -0.6947058204276966 0.2598443376208965 C -0.589455918582088 0.320568365252974 -0.5949721288713741 0.5127671508297323 -0.6992925035687889 0.6934763713288035 Z" fill="#96cccc" transform="matrix(1,0,0,1,0,0)" fill-rule="nonzero"></path></g><g clip-path="url(&quot;#SvgjsClipPath1008&quot;)"><path d=" M -0.998493578237754 1.0026889105283272 C -1.0366108713987787 1.0029969244590256 -1.0741207395427865 0.9931342119684892 -1.1071568256767343 0.9741173793338116 C -1.2522087752450501 0.8903075544965665 -1.2635154825230939 0.666779132580648 -1.1340216840745636 0.4424888031662094 C -1.037015621362946 0.2744881997424591 -0.8914760509955766 0.16593161935327094 -0.7632013045446806 0.16593161935327094 C -0.7258405444789624 0.16561308866707342 -0.689069494245298 0.17525424659559688 -0.6566713981015568 0.19386314824902856 C -0.5811511268482135 0.2374594953143666 -0.5405262190271061 0.32233599064954094 -0.5422938444236722 0.43287353053488165 C -0.5438176594207145 0.5263748187533065 -0.5760920610580376 0.6324932951472295 -0.6333113141969202 0.731541269954883 C -0.7298602324094265 0.8987952040300836 -0.8698074017376567 1.0026889105283272 -0.998493578237754 1.0026889105283272 Z M -0.7632013045446806 0.31831311905735266 C -0.8244129529758097 0.31831311905735266 -0.9261123658783144 0.38714384247368644 -1.002044067180858 0.5186795530182503 C -1.0889015220121847 0.6690191406262981 -1.0869662769659427 0.80981964635287 -1.030996552124634 0.8421550005900764 C -1.0211044806369303 0.8477482393881145 -1.0098849994461232 0.8505649556889503 -0.9985240545376939 0.8503074108242444 C -0.9404209887005273 0.8503074108242448 -0.8426377803404181 0.789354810942612 -0.7653041692405973 0.6553809964027827 C -0.7214792499257037 0.5794645332502089 -0.6957420146256823 0.49748328640941275 -0.6946905822777254 0.43046590283955777 C -0.6942791522285239 0.4058562906373484 -0.6972353533227833 0.34641226760278615 -0.7328926242535383 0.32584076514273497 C -0.7421368674672062 0.32065697327634585 -0.7526059263605338 0.3180568148583955 -0.7632013045446806 0.31831311905735266 Z" fill="#99515c" transform="matrix(1,0,0,1,0,0)" fill-rule="nonzero"></path></g></g></g><defs><clipPath id="SvgjsClipPath1019"><path d=" M -2.253934277999746 -0.04694533573333204 h 1.8539342779997459 v 2.0175310560820487 h -1.8539342779997459 Z"></path></clipPath><clipPath id="SvgjsClipPath1008"><path d=" M -2.253934277999746 -0.04694533573333204 L -0.40000000000000013 -0.04694533573333204 L -0.40000000000000013 1.9705857203487167 L -2.2539342779997464 1.9705857203487167 Z"></path></clipPath></defs></svg>